<?xml version="1.0" standalone="no"?>
<!DOCTYPE svg PUBLIC "-//W3C//DTD SVG 20010904//EN"
 "http://www.w3.org/TR/2001/REC-SVG-20010904/DTD/svg10.dtd">
<svg version="1.0" xmlns="http://www.w3.org/2000/svg"
 width="1501.000000pt" height="1501.000000pt" viewBox="0 0 1501.000000 1501.000000"
 preserveAspectRatio="xMidYMid meet">
<metadata>
Created by potrace 1.14, written by Peter Selinger 2001-2017
</metadata>
<g transform="translate(0.000000,1501.000000) scale(0.100000,-0.100000)"
fill="#000000" stroke="none">
<path d="M2329 15006 c-2 -2 -35 -7 -74 -10 -74 -7 -81 -8 -215 -32 -570 -104
-1116 -433 -1485 -894 -172 -215 -321 -481 -410 -730 -50 -138 -108 -376 -121
-495 -3 -27 -9 -61 -12 -75 -4 -14 -8 -2365 -9 -5225 -1 -4387 1 -5217 12
-5310 41 -320 109 -552 244 -828 123 -252 268 -455 471 -657 153 -154 164
-164 292 -258 182 -134 406 -256 618 -335 86 -32 217 -73 259 -82 9 -2 36 -8
61 -14 25 -5 59 -12 75 -15 17 -3 41 -8 55 -11 27 -5 70 -11 170 -23 84 -9
10414 -9 10500 0 168 19 394 69 545 121 154 53 362 149 461 212 30 19 56 35
59 35 3 0 42 26 87 57 175 120 315 244 475 420 124 137 289 388 381 583 89
186 178 462 198 607 3 27 8 50 9 53 2 3 6 33 10 65 4 33 11 87 15 120 10 71 8
10434 -3 10485 -3 19 -9 51 -11 70 -14 101 -20 133 -42 225 -50 212 -93 331
-185 520 -140 288 -295 503 -516 715 -118 114 -144 136 -254 217 -304 225
-660 381 -1019 447 -251 47 29 44 -5466 45 -2844 1 -5173 -1 -5175 -3z"/>
</g>
</svg>
